<svg version="1.1" id="Layer_1" xmlns="http://www.w3.org/2000/svg" xmlns:xlink="http://www.w3.org/1999/xlink" x="0px" y="0px"
	 width="100%" viewBox="0 300 672 350" enable-background="new 0 300 672 350" xml:space="preserve">
<path fill="#000000" opacity="1.000000" stroke="none" 
	d="
M487.585754,581.776611 
	C477.811096,582.696594 470.806152,578.540649 465.265594,571.433472 
	C464.898804,571.715576 464.530762,571.849548 464.454102,572.080383 
	C463.555023,574.787048 465.878967,578.767395 462.462372,580.228577 
	C458.641693,581.862488 454.249542,581.229980 450.152252,580.555420 
	C447.147461,580.060730 447.781097,577.338440 447.775391,575.280762 
	C447.730652,559.137573 447.748413,542.994263 447.743103,526.850952 
	C447.738647,513.370483 447.847168,499.888275 447.650757,486.410553 
	C447.590759,482.291870 449.012268,480.880768 453.121826,480.867920 
	C463.774841,480.834564 463.577911,480.699829 464.585449,491.245514 
	C465.192780,497.602142 464.034454,503.875366 464.406250,510.188934 
	C464.511108,511.969147 463.995850,513.878235 465.370514,515.441223 
	C465.705566,515.340576 466.164093,515.347168 466.297180,515.142273 
	C476.079742,500.088013 499.979279,504.414612 508.917297,516.882568 
	C518.960754,530.892517 519.775574,555.095337 509.794037,569.185791 
	C504.444275,576.737793 497.060089,580.646790 487.585754,581.776611 
M494.524689,561.992188 
	C501.293060,552.856689 502.075897,537.054443 496.136017,527.525818 
	C492.690521,521.998596 487.594055,519.120605 481.093109,519.453125 
	C474.645477,519.782837 469.743500,522.742554 467.061859,528.943848 
	C463.250977,537.756348 462.805481,546.785583 466.177216,555.655029 
	C471.183105,568.823059 483.823120,571.772644 494.524689,561.992188 
z"/>
<path fill="#000000" opacity="1.000000" stroke="none" 
	d="
M429.380676,567.863037 
	C429.406097,570.175781 429.368073,572.011414 429.467926,573.839539 
	C429.857086,580.965027 429.873108,580.964539 422.522827,580.984253 
	C421.856476,580.986084 421.190155,580.987366 420.523804,580.984009 
	C413.903046,580.951233 413.907654,580.950806 413.667267,574.503235 
	C413.643890,573.876526 413.518555,573.253601 413.320953,571.670898 
	C406.560730,579.686279 398.470581,582.944824 388.695526,582.239929 
	C373.138733,581.118103 363.251923,568.308105 366.709198,553.670227 
	C368.434875,546.363953 373.547455,542.483582 380.061981,540.018250 
	C387.139465,537.339844 394.691528,536.938416 402.079010,535.765747 
	C403.557251,535.531067 405.056458,535.398254 406.515411,535.078918 
	C408.904022,534.556030 411.836731,534.572510 412.559601,531.549255 
	C413.372375,528.150024 412.740601,524.986389 410.007416,522.400513 
	C404.556549,517.243347 392.853729,517.846863 387.146454,523.670166 
	C382.057007,528.863037 376.547913,529.516235 369.045074,525.685425 
	C370.231384,518.434570 374.491913,513.321289 380.802948,510.030151 
	C392.290283,504.039673 404.280731,503.854767 416.016846,508.915253 
	C424.670135,512.646484 429.330872,519.735962 429.372894,529.401428 
	C429.427948,542.061523 429.382690,554.722107 429.380676,567.863037 
M395.514069,568.895508 
	C408.939606,568.053833 415.843079,558.809692 411.798309,546.436951 
	C403.905243,547.682983 395.806824,548.177246 388.105743,550.929688 
	C384.680542,552.153809 382.652466,554.597656 382.347748,558.311157 
	C382.028534,562.202271 383.678528,565.024109 387.026489,566.946899 
	C389.394165,568.306763 391.943665,568.889343 395.514069,568.895508 
z"/>
<path fill="#000000" opacity="1.000000" stroke="none" 
	d="
M535.709229,574.339722 
	C532.163818,571.072388 530.059448,567.345093 528.870667,563.083069 
	C528.194092,560.657593 529.006531,559.207092 531.652405,558.984924 
	C534.804138,558.720459 537.957031,558.456055 541.100220,558.108643 
	C543.298767,557.865784 544.632446,558.814819 545.194397,560.864197 
	C547.834106,570.490479 564.947998,570.559448 570.716064,565.504883 
	C575.589966,561.233826 574.545532,554.486572 568.310974,552.609436 
	C561.317200,550.503601 554.074646,549.238647 546.983765,547.436890 
	C536.330688,544.729736 530.505859,538.391846 529.927368,529.142334 
	C529.357300,520.026367 534.455261,512.054443 544.087646,508.284515 
	C554.750916,504.111023 565.651550,504.227264 576.192017,508.800446 
	C583.428101,511.939972 587.305237,517.948975 588.872314,526.030823 
	C584.296143,528.055725 579.550232,527.145264 575.046753,527.695496 
	C573.674194,527.863159 573.268433,525.946777 572.579590,524.829468 
	C568.458557,518.145020 554.195679,516.702026 548.624084,522.386169 
	C545.556946,525.515259 545.682739,529.013000 548.996582,531.940735 
	C551.610352,534.250000 554.908325,534.901917 558.163696,535.615601 
	C563.529663,536.791931 568.957458,537.726318 574.264526,539.122620 
	C584.301758,541.763367 590.400513,548.443665 591.167114,557.204468 
	C591.883972,565.395996 586.926880,573.726501 578.051819,577.802246 
	C563.543213,584.464966 549.352478,584.141785 535.709229,574.339722 
z"/>
<path fill="#000000" opacity="1.000000" stroke="none" 
	d="
M233.001038,479.050598 
	C229.344208,479.064911 226.135254,478.710602 223.040604,479.153961 
	C216.377792,480.108551 211.667313,477.560791 207.707642,472.333374 
	C204.493454,468.090088 205.458740,464.414551 210.787231,463.083984 
	C211.893555,462.807709 213.096954,462.864807 214.255814,462.862427 
	C232.367661,462.825226 250.479538,462.801758 268.591400,462.782776 
	C269.587463,462.781738 270.584595,462.829529 271.579468,462.885803 
	C274.337708,463.041748 275.519714,465.247223 276.677307,467.182159 
	C277.993378,469.381927 275.661316,470.387543 274.591766,471.680634 
	C270.148102,477.053101 264.926270,479.988007 257.410980,479.257111 
	C249.508743,478.488556 241.476303,479.058533 233.001038,479.050598 
z"/>
<path fill="#000000" opacity="1.000000" stroke="none" 
	d="
M142.999664,462.787109 
	C153.996277,462.791931 164.492981,462.781311 174.989471,462.822754 
	C176.955780,462.830505 179.037781,462.571625 180.608414,464.253082 
	C182.594772,466.379700 183.536942,467.994659 180.900009,470.876373 
	C175.406982,476.879181 169.504074,480.163391 160.931274,479.288483 
	C152.686295,478.447021 144.284637,478.955688 135.959320,479.166595 
	C131.968292,479.267700 128.893829,478.268646 126.499832,474.912720 
	C124.865837,472.622253 122.758446,470.669067 120.858284,468.569092 
	C119.877060,467.484680 118.412491,466.548340 119.282593,464.767242 
	C120.127296,463.038116 121.744667,462.710938 123.506104,462.720856 
	C129.837234,462.756592 136.168488,462.768646 142.999664,462.787109 
z"/>
<path fill="#000000" opacity="1.000000" stroke="none" 
	d="
M106.331787,578.290405 
	C110.466553,574.486694 114.498146,571.031006 118.495811,567.536621 
	C119.976379,566.242432 121.691025,565.917480 123.582382,565.920166 
	C134.391708,565.935181 145.201157,565.886841 156.010391,565.919739 
	C159.258362,565.929626 168.732635,573.848633 169.227951,576.829163 
	C169.618668,579.180237 165.700851,582.344482 162.184265,582.355774 
	C152.372818,582.387268 142.561111,582.325134 132.749573,582.338623 
	C126.098190,582.347778 119.443443,582.310303 112.797081,582.516052 
	C109.623520,582.614319 107.232529,581.917725 106.331787,578.290405 
z"/>
<path fill="#000000" opacity="1.000000" stroke="none" 
	d="
M302.032349,476.483398 
	C302.395355,474.769287 302.513672,473.406464 302.998901,472.189972 
	C305.496948,465.927032 310.217834,465.267395 314.667725,470.157410 
	C317.756866,473.552124 319.291779,476.838226 318.463409,481.702850 
	C316.935089,490.677490 316.063812,499.774841 315.199432,508.847778 
	C314.650482,514.609741 310.525635,517.431702 306.434387,520.171814 
	C303.993896,521.806335 298.253662,515.658936 298.585754,511.555359 
	C299.334625,502.301910 300.332489,493.068542 301.236389,483.827728 
	C301.462311,481.517822 301.716003,479.210632 302.032349,476.483398 
z"/>
<path fill="#000000" opacity="1.000000" stroke="none" 
	d="
M240.530472,558.459717 
	C240.057175,562.542297 239.542084,566.170532 239.288956,569.817017 
	C238.951889,574.672729 234.865463,576.573181 231.969986,579.404358 
	C231.622879,579.743713 230.690964,579.735046 230.129730,579.562866 
	C227.414886,578.730042 222.564178,570.871643 222.916733,567.791809 
	C224.182877,556.730225 225.471481,545.670776 226.844376,534.622131 
	C227.278076,531.131775 233.966522,524.910706 236.315613,525.583618 
	C239.007034,526.354614 243.549255,533.169067 243.211838,536.233459 
	C242.411652,543.501038 241.482391,550.754333 240.530472,558.459717 
z"/>
<path fill="#000000" opacity="1.000000" stroke="none" 
	d="
M316.008118,582.316650 
	C311.687622,582.339111 307.865479,582.369934 304.043304,582.367859 
	C301.827362,582.366638 300.070160,581.281555 299.288391,579.333435 
	C298.461945,577.274048 300.622101,576.544922 301.763214,575.504150 
	C304.583771,572.931335 307.532379,570.499573 310.387756,567.964111 
	C311.823486,566.689209 313.436676,565.999512 315.357452,566.001343 
	C324.663940,566.010254 333.970673,565.974792 343.276703,566.040955 
	C345.887451,566.059509 355.418427,574.187378 355.809082,576.526917 
	C356.216827,578.968750 352.057617,582.363831 348.414581,582.372375 
	C337.778625,582.397278 327.142487,582.337708 316.008118,582.316650 
z"/>
<path fill="#000000" opacity="1.000000" stroke="none" 
	d="
M171.202866,522.195068 
	C167.612869,527.928650 163.501419,531.831299 155.981186,531.233337 
	C147.057022,530.523560 138.021805,530.673889 129.065704,531.101318 
	C123.624306,531.360901 121.014801,527.952454 118.012390,524.678650 
	C117.446754,524.061890 117.219650,523.272522 117.550606,522.372559 
	C118.287422,520.368835 126.285713,514.827393 128.744232,514.825317 
	C139.883850,514.815979 151.023987,514.940247 162.162933,514.865417 
	C167.138977,514.832031 168.441620,519.164368 171.202866,522.195068 
z"/>
<path fill="#000000" opacity="1.000000" stroke="none" 
	d="
M124.740150,490.624634 
	C124.174622,496.010651 123.556305,500.950989 123.274139,505.910431 
	C123.014275,510.478088 121.706604,514.397827 117.621506,516.855347 
	C115.634766,518.050598 114.060371,521.623718 111.477509,519.794189 
	C108.544304,517.716492 105.170967,515.289551 105.753304,510.613068 
	C106.653748,503.382050 107.382797,496.129608 108.177879,488.885559 
	C108.683998,484.274292 109.275169,479.669495 109.643074,475.047058 
	C109.883743,472.023071 111.494011,469.869171 114.067101,468.994202 
	C116.408493,468.198029 117.120834,471.018707 118.538483,472.258942 
	C124.012207,477.047455 127.039124,482.700073 124.740150,490.624634 
z"/>
<path fill="#000000" opacity="1.000000" stroke="none" 
	d="
M100.118759,564.353882 
	C101.093941,555.140137 102.394951,546.384277 102.720436,537.592285 
	C102.942261,531.600037 106.760872,528.842834 110.692261,525.779053 
	C111.644051,525.037292 112.481567,525.371765 113.424606,525.914429 
	C117.821152,528.444641 120.090309,533.130188 119.494934,538.396240 
	C118.710075,545.338196 117.955208,552.284058 117.271362,559.236511 
	C117.050491,561.482178 116.450630,563.462097 114.720245,565.007935 
	C110.905144,568.416260 107.105286,571.841614 103.332413,575.230225 
	C98.661819,572.476746 99.682938,568.538086 100.118759,564.353882 
z"/>
<path fill="#000000" opacity="1.000000" stroke="none" 
	d="
M299.046661,529.252808 
	C301.323608,527.826599 302.675934,524.093628 305.398163,525.953796 
	C308.400177,528.005188 312.431000,530.303345 312.117737,534.626343 
	C311.457062,543.743530 311.013702,553.035522 308.775055,561.821167 
	C307.377380,567.306396 301.442871,570.650391 296.861298,574.184021 
	C294.983521,575.632385 291.573853,572.379272 291.898590,569.074585 
	C293.069397,557.158813 294.507599,545.269287 295.843689,533.369690 
	C296.053802,531.498352 297.537048,530.595398 299.046661,529.252808 
z"/>
<path fill="#000000" opacity="1.000000" stroke="none" 
	d="
M231.442841,493.573853 
	C231.512207,488.207397 232.138580,483.886230 238.322586,482.838196 
	C245.260788,481.662292 248.785889,484.574554 248.084091,491.515320 
	C247.583649,496.465088 246.418030,501.400055 246.441986,506.337250 
	C246.472687,512.664551 243.186783,516.389465 238.428192,519.656921 
	C236.463028,521.006165 235.248215,520.814087 233.777374,519.180298 
	C230.986908,516.080566 228.353119,513.232300 229.556885,508.302795 
	C230.688736,503.667816 230.796982,498.782837 231.442841,493.573853 
z"/>
</svg>