<svg version="1.1" xmlns="http://www.w3.org/2000/svg" xmlns:xlink="http://www.w3.org/1999/xlink" viewBox="356 300 316 350">
<path fill="#000000" opacity="1.000000" stroke="none"
	d="
M487.585754,581.776611
	C477.811096,582.696594 470.806152,578.540649 465.265594,571.433472
	C464.898804,571.715576 464.530762,571.849548 464.454102,572.080383
	C463.555023,574.787048 465.878967,578.767395 462.462372,580.228577
	C458.641693,581.862488 454.249542,581.229980 450.152252,580.555420
	C447.147461,580.060730 447.781097,577.338440 447.775391,575.280762
	C447.730652,559.137573 447.748413,542.994263 447.743103,526.850952
	C447.738647,513.370483 447.847168,499.888275 447.650757,486.410553
	C447.590759,482.291870 449.012268,480.880768 453.121826,480.867920
	C463.774841,480.834564 463.577911,480.699829 464.585449,491.245514
	C465.192780,497.602142 464.034454,503.875366 464.406250,510.188934
	C464.511108,511.969147 463.995850,513.878235 465.370514,515.441223
	C465.705566,515.340576 466.164093,515.347168 466.297180,515.142273
	C476.079742,500.088013 499.979279,504.414612 508.917297,516.882568
	C518.960754,530.892517 519.775574,555.095337 509.794037,569.185791
	C504.444275,576.737793 497.060089,580.646790 487.585754,581.776611
M494.524689,561.992188
	C501.293060,552.856689 502.075897,537.054443 496.136017,527.525818
	C492.690521,521.998596 487.594055,519.120605 481.093109,519.453125
	C474.645477,519.782837 469.743500,522.742554 467.061859,528.943848
	C463.250977,537.756348 462.805481,546.785583 466.177216,555.655029
	C471.183105,568.823059 483.823120,571.772644 494.524689,561.992188
z"/>
<path fill="#000000" opacity="1.000000" stroke="none"
	d="
M429.380676,567.863037
	C429.406097,570.175781 429.368073,572.011414 429.467926,573.839539
	C429.857086,580.965027 429.873108,580.964539 422.522827,580.984253
	C421.856476,580.986084 421.190155,580.987366 420.523804,580.984009
	C413.903046,580.951233 413.907654,580.950806 413.667267,574.503235
	C413.643890,573.876526 413.518555,573.253601 413.320953,571.670898
	C406.560730,579.686279 398.470581,582.944824 388.695526,582.239929
	C373.138733,581.118103 363.251923,568.308105 366.709198,553.670227
	C368.434875,546.363953 373.547455,542.483582 380.061981,540.018250
	C387.139465,537.339844 394.691528,536.938416 402.079010,535.765747
	C403.557251,535.531067 405.056458,535.398254 406.515411,535.078918
	C408.904022,534.556030 411.836731,534.572510 412.559601,531.549255
	C413.372375,528.150024 412.740601,524.986389 410.007416,522.400513
	C404.556549,517.243347 392.853729,517.846863 387.146454,523.670166
	C382.057007,528.863037 376.547913,529.516235 369.045074,525.685425
	C370.231384,518.434570 374.491913,513.321289 380.802948,510.030151
	C392.290283,504.039673 404.280731,503.854767 416.016846,508.915253
	C424.670135,512.646484 429.330872,519.735962 429.372894,529.401428
	C429.427948,542.061523 429.382690,554.722107 429.380676,567.863037
M395.514069,568.895508
	C408.939606,568.053833 415.843079,558.809692 411.798309,546.436951
	C403.905243,547.682983 395.806824,548.177246 388.105743,550.929688
	C384.680542,552.153809 382.652466,554.597656 382.347748,558.311157
	C382.028534,562.202271 383.678528,565.024109 387.026489,566.946899
	C389.394165,568.306763 391.943665,568.889343 395.514069,568.895508
z"/>
<path fill="#000000" opacity="1.000000" stroke="none"
	d="
M535.709229,574.339722
	C532.163818,571.072388 530.059448,567.345093 528.870667,563.083069
	C528.194092,560.657593 529.006531,559.207092 531.652405,558.984924
	C534.804138,558.720459 537.957031,558.456055 541.100220,558.108643
	C543.298767,557.865784 544.632446,558.814819 545.194397,560.864197
	C547.834106,570.490479 564.947998,570.559448 570.716064,565.504883
	C575.589966,561.233826 574.545532,554.486572 568.310974,552.609436
	C561.317200,550.503601 554.074646,549.238647 546.983765,547.436890
	C536.330688,544.729736 530.505859,538.391846 529.927368,529.142334
	C529.357300,520.026367 534.455261,512.054443 544.087646,508.284515
	C554.750916,504.111023 565.651550,504.227264 576.192017,508.800446
	C583.428101,511.939972 587.305237,517.948975 588.872314,526.030823
	C584.296143,528.055725 579.550232,527.145264 575.046753,527.695496
	C573.674194,527.863159 573.268433,525.946777 572.579590,524.829468
	C568.458557,518.145020 554.195679,516.702026 548.624084,522.386169
	C545.556946,525.515259 545.682739,529.013000 548.996582,531.940735
	C551.610352,534.250000 554.908325,534.901917 558.163696,535.615601
	C563.529663,536.791931 568.957458,537.726318 574.264526,539.122620
	C584.301758,541.763367 590.400513,548.443665 591.167114,557.204468
	C591.883972,565.395996 586.926880,573.726501 578.051819,577.802246
	C563.543213,584.464966 549.352478,584.141785 535.709229,574.339722
z"/>
</svg>
